<svg width="721" height="76" viewBox="0 0 721 76" fill="none" xmlns="http://www.w3.org/2000/svg">
<path d="M716.279 20.2745C713.89 15.2539 710.946 10.6989 706.931 6.89774C705.083 5.14858 700.963 1.41786 697.814 2.25759C675.287 0.35952 652.631 0.688284 630.022 0.673208C607.15 0.667076 584.272 0.750423 561.416 1.28478C515.778 2.34546 470.148 4.26731 424.567 7.00142C333.391 12.456 242.573 21.5172 152.029 33.9228C126.725 37.3969 101.416 41.1532 76.0522 44.0069C63.7536 45.394 51.4307 46.5739 39.0785 47.4309C32.7586 47.8631 26.4311 48.2177 20.1112 48.6499C15.284 48.9717 4.88478 47.5896 1.51508 51.2926C1.54993 51.3334 1.57155 51.3861 1.6064 51.4269C-0.201878 52.5704 0.015222 56.4122 0.626961 58.7633C2.03349 64.1195 5.41301 69.6657 10.1656 72.4734C15.3644 75.5279 21.7471 74.8942 27.6268 75.1019C33.4061 75.3161 39.182 75.3888 44.9684 75.2952C56.4543 75.1023 67.9333 74.6264 79.3996 73.957C102.37 72.6079 125.209 70.5951 148.086 68.161C193.829 63.292 239.579 58.706 285.437 55.1674C377.126 48.1014 468.869 43.3509 560.808 42.3637C586.619 42.0947 612.426 41.8897 638.225 41.9925C663.863 42.085 689.566 43.3121 715.167 42.0405C724.96 41.56 718.337 24.6189 716.267 20.2609L716.279 20.2745Z" fill="url(#paint0_linear_102_117)"/>
<defs>
<linearGradient id="paint0_linear_102_117" x1="756.098" y1="5.78209" x2="319.409" y2="434.5" gradientUnits="userSpaceOnUse">
<stop stop-color="#230E3E"/>
<stop offset="0.340972" stop-color="#EF0F3A"/>
<stop offset="0.675694" stop-color="#F48B2C"/>
<stop offset="1" stop-color="#FDE1A2"/>
</linearGradient>
</defs>
</svg>
