<svg width="406" height="196" viewBox="0 0 406 196" fill="none" xmlns="http://www.w3.org/2000/svg">
<path d="M214.313 0.581016C194.409 2.25255 174.568 0.534943 154.597 3.03184C136.642 5.27175 118.805 9.1271 101.498 14.9297C69.2102 25.7559 34.1393 43.6379 13.0742 73.0144C-5.30424 98.6397 -2.36341 129.739 19.5612 151.139C32.0217 163.311 47.8187 169.227 63.4026 175.526C82.3087 183.151 101.947 188.076 122.075 190.862C164.681 196.811 209.102 196.61 251.949 190.91C290.231 185.816 330.595 177.05 364.965 157.217C392.008 141.598 418.96 112.679 397.627 80.3184C379.206 52.4047 340.02 39.7184 310.606 30.5592C266.405 16.7806 218.991 12.5734 172.76 15.0016C136.601 16.9021 92.3782 22.2887 67.79 54.5411C65.6276 57.3882 68.9837 61.5445 71.8908 59.2432C98.0924 38.4592 124.662 29.2187 156.942 26.3674C192.651 23.213 228.792 25.0229 263.934 31.2384C299.076 37.4539 331.211 46.8429 361.438 63.0711C373.852 69.7433 387.054 78.5897 393.361 92.2989C403.78 114.975 385.035 133.659 368.096 145.095C338.586 165.052 303.087 174.336 269.206 180.784C232.013 187.869 194.423 189.629 156.852 188.255C120.164 186.901 85.5202 179.934 51.409 166.101C20.2217 153.475 -9.44786 121.442 9.59163 83.8734C27.0565 49.462 66.8171 28.7988 100.075 16.9094C117.822 10.5543 136.148 6.28573 154.676 3.72522C173.203 1.16471 195.246 -1.63181 214.276 1.5162C214.971 1.63489 215.051 0.445614 214.326 0.504788L214.313 0.581016Z" fill="url(#paint0_linear_120_6)"/>
<defs>
<linearGradient id="paint0_linear_120_6" x1="436.128" y1="38.3975" x2="-37.6251" y2="119.925" gradientUnits="userSpaceOnUse">
<stop stop-color="#230E3E"/>
<stop offset="0.340972" stop-color="#EF0F3A"/>
<stop offset="0.675694" stop-color="#F48B2C"/>
<stop offset="1" stop-color="#FDE1A2"/>
</linearGradient>
</defs>
</svg>
